<svg width="26" height="29" viewBox="0 0 26 29" fill="none" xmlns="http://www.w3.org/2000/svg">
<path d="M3.02756 28.7088C2.32717 28.7088 1.72761 28.4594 1.22885 27.9606C0.730091 27.4619 0.480713 26.8623 0.480713 26.1619C0.480713 25.4615 0.730091 24.862 1.22885 24.3632C1.72761 23.8644 2.32717 23.6151 3.02756 23.6151H23.4023C24.1027 23.6151 24.7023 23.8644 25.201 24.3632C25.6998 24.862 25.9491 25.4615 25.9491 26.1619C25.9491 26.8623 25.6998 27.4619 25.201 27.9606C24.7023 28.4594 24.1027 28.7088 23.4023 28.7088H3.02756ZM4.30098 21.0682C3.94018 21.0682 3.63774 20.9462 3.39367 20.7021C3.14959 20.458 3.02756 20.1556 3.02756 19.7948V16.8341C3.02756 16.6643 3.05939 16.4998 3.12306 16.3406C3.18673 16.1815 3.28224 16.0382 3.40958 15.9109L14.552 4.76842L19.3274 9.54376L8.18491 20.6862C8.05757 20.8135 7.91431 20.909 7.75514 20.9727C7.59596 21.0364 7.43147 21.0682 7.26168 21.0682H4.30098ZM5.5744 18.5214H6.72048L15.7618 9.54376L14.552 8.33401L5.5744 17.3753V18.5214ZM20.76 8.14299L15.9846 3.36766L18.2768 1.0755C18.5102 0.820817 18.8074 0.69878 19.1682 0.709392C19.529 0.720004 19.8261 0.84204 20.0596 1.0755L23.0521 4.06804C23.2856 4.3015 23.4023 4.59333 23.4023 4.94352C23.4023 5.29371 23.2856 5.59615 23.0521 5.85083L20.76 8.14299Z" fill="white"/>
</svg>
