<svg width="26" height="29" viewBox="0 0 26 29" fill="none" xmlns="http://www.w3.org/2000/svg">
<path d="M4.8189 28.7088C3.94474 28.7088 3.19641 28.4041 2.57391 27.7949C1.95141 27.1856 1.64015 26.4532 1.64015 25.5976V5.37542C1.18983 5.37542 0.812355 5.22635 0.507726 4.9282C0.203096 4.63005 0.0507812 4.26061 0.0507812 3.81987C0.0507812 3.37913 0.203096 3.00968 0.507726 2.71153C0.812355 2.41339 1.18983 2.26431 1.64015 2.26431H7.99764C7.99764 1.82357 8.14996 1.45413 8.45459 1.15598C8.75921 0.85783 9.13669 0.708755 9.58701 0.708755H15.9445C16.3948 0.708755 16.7723 0.85783 17.0769 1.15598C17.3816 1.45413 17.5339 1.82357 17.5339 2.26431H23.8914C24.3417 2.26431 24.7192 2.41339 25.0238 2.71153C25.3284 3.00968 25.4807 3.37913 25.4807 3.81987C25.4807 4.26061 25.3284 4.63005 25.0238 4.9282C24.7192 5.22635 24.3417 5.37542 23.8914 5.37542V25.5976C23.8914 26.4532 23.5801 27.1856 22.9576 27.7949C22.3351 28.4041 21.5868 28.7088 20.7126 28.7088H4.8189ZM20.7126 5.37542H4.8189V25.5976H20.7126V5.37542ZM12.7658 17.6643L15.7856 20.6199C16.0769 20.9051 16.4478 21.0476 16.8981 21.0476C17.3484 21.0476 17.7193 20.9051 18.0107 20.6199C18.3021 20.3347 18.4478 19.9717 18.4478 19.531C18.4478 19.0902 18.3021 18.7273 18.0107 18.4421L14.9909 15.4865L18.0107 12.531C18.3021 12.2458 18.4478 11.8828 18.4478 11.4421C18.4478 11.0013 18.3021 10.6384 18.0107 10.3532C17.7193 10.068 17.3484 9.92542 16.8981 9.92542C16.4478 9.92542 16.0769 10.068 15.7856 10.3532L12.7658 13.3088L9.74595 10.3532C9.45457 10.068 9.08371 9.92542 8.63339 9.92542C8.18307 9.92542 7.81221 10.068 7.52083 10.3532C7.22944 10.6384 7.08375 11.0013 7.08375 11.4421C7.08375 11.8828 7.22944 12.2458 7.52083 12.531L10.5406 15.4865L7.52083 18.4421C7.22944 18.7273 7.08375 19.0902 7.08375 19.531C7.08375 19.9717 7.22944 20.3347 7.52083 20.6199C7.81221 20.9051 8.18307 21.0476 8.63339 21.0476C9.08371 21.0476 9.45457 20.9051 9.74595 20.6199L12.7658 17.6643Z" fill="white"/>
</svg>
